<svg xmlns="http://www.w3.org/2000/svg"  viewBox="0 0 50 50" width="50px" height="50px"><path d="M 24 1 L 24 3.09375 C 22.617188 3.328125 21.394531 4.035156 20.5 5.046875 C 20.386719 5.03125 20.246094 5 20 5 C 16.699219 5 14 7.699219 14 11 C 14 11.746094 14.308594 12.402344 14.710938 12.871094 C 15.113281 13.339844 15.597656 13.648438 16.046875 13.875 C 16.207031 13.957031 16.359375 14.019531 16.515625 14.078125 C 16.578125 14.414063 16.804688 14.691406 17.117188 14.820313 C 17.429688 14.945313 17.789063 14.90625 18.066406 14.714844 C 18.066406 14.714844 20.519531 13 25 13 C 29.480469 13 31.933594 14.714844 31.933594 14.714844 C 32.210938 14.910156 32.570313 14.949219 32.882813 14.820313 C 33.199219 14.691406 33.425781 14.414063 33.488281 14.078125 C 33.640625 14.019531 33.792969 13.957031 33.953125 13.875 C 34.402344 13.648438 34.886719 13.339844 35.289063 12.871094 C 35.691406 12.402344 36 11.746094 36 11 C 36 7.699219 33.300781 5 30 5 C 29.753906 5 29.613281 5.03125 29.5 5.046875 C 28.605469 4.035156 27.382813 3.328125 26 3.09375 L 26 1 Z M 25 5 C 27.21875 5 29 6.78125 29 9 C 29 9.867188 28.710938 10.648438 28.238281 11.300781 C 27.28125 11.121094 26.199219 11 25 11 C 23.800781 11 22.71875 11.121094 21.761719 11.300781 C 21.289063 10.648438 21 9.867188 21 9 C 21 6.78125 22.78125 5 25 5 Z M 19.328125 7.066406 C 19.121094 7.675781 19 8.324219 19 9 C 19 10.023438 19.265625 10.984375 19.722656 11.828125 C 19.042969 12.046875 18.46875 12.273438 18.03125 12.480469 C 17.855469 12.441406 17.433594 12.339844 16.953125 12.09375 C 16.652344 11.941406 16.386719 11.75 16.226563 11.5625 C 16.066406 11.378906 16 11.234375 16 11 C 16 9.011719 17.433594 7.382813 19.328125 7.066406 Z M 30.671875 7.066406 C 32.566406 7.382813 34 9.011719 34 11 C 34 11.234375 33.933594 11.378906 33.773438 11.5625 C 33.613281 11.75 33.347656 11.941406 33.046875 12.09375 C 32.566406 12.339844 32.144531 12.441406 31.96875 12.480469 C 31.53125 12.273438 30.957031 12.046875 30.277344 11.828125 C 30.734375 10.984375 31 10.023438 31 9 C 31 8.324219 30.878906 7.675781 30.671875 7.066406 Z M 25 14 C 15.621094 14 8 21.621094 8 31 C 8 40.378906 15.621094 48 25 48 C 34.378906 48 42 40.378906 42 31 C 42 21.621094 34.378906 14 25 14 Z M 25 16 C 33.296875 16 40 22.703125 40 31 C 40 39.296875 33.296875 46 25 46 C 16.703125 46 10 39.296875 10 31 C 10 22.703125 16.703125 16 25 16 Z M 18.265625 19.855469 L 17.582031 20.332031 C 14.210938 22.679688 12 26.585938 12 31 C 12 34.066406 13.070313 36.890625 14.847656 39.109375 L 16.410156 37.859375 C 14.902344 35.976563 14 33.601563 14 31 C 14 27.550781 15.628906 24.539063 18.109375 22.519531 L 19.488281 23.902344 C 17.371094 25.550781 16 28.117188 16 31 C 16 34.90625 18.511719 38.230469 22 39.472656 L 22 41 L 24 41 L 24 39.941406 C 24.328125 39.976563 24.660156 40 25 40 C 28.054688 40 30.761719 38.46875 32.386719 36.136719 L 30.746094 34.996094 C 29.480469 36.8125 27.386719 38 25 38 C 24.660156 38 24.328125 37.96875 24 37.921875 L 24 36 L 27 36 L 27 34 L 24 34 L 24 33 L 27 33 L 27 31 L 22 31 L 22 37.324219 C 19.632813 36.203125 18 33.800781 18 31 C 18 28.65625 19.148438 26.589844 20.90625 25.324219 L 25 29.414063 L 29.09375 25.324219 C 29.753906 25.800781 30.328125 26.390625 30.789063 27.0625 L 32.441406 25.9375 C 31.910156 25.160156 31.253906 24.480469 30.511719 23.90625 L 31.890625 22.519531 C 34.371094 24.539063 36 27.550781 36 31 C 36 33.601563 35.097656 35.976563 33.589844 37.859375 L 35.152344 39.109375 C 36.929688 36.890625 38 34.066406 38 31 C 38 26.585938 35.789063 22.679688 32.417969 20.332031 L 31.734375 19.855469 L 28.75 22.835938 C 27.605469 22.308594 26.339844 22 25 22 C 23.660156 22 22.390625 22.304688 21.246094 22.832031 Z M 25 24 C 25.777344 24 26.519531 24.136719 27.214844 24.371094 L 25 26.585938 L 22.777344 24.363281 C 23.476563 24.128906 24.222656 24 25 24 Z"/></svg>